%TF.GenerationSoftware,KiCad,Pcbnew,9.0.7*%
%TF.CreationDate,2026-03-28T17:21:52+00:00*%
%TF.ProjectId,DRV8870-Breakout,44525638-3837-4302-9d42-7265616b6f75,rev?*%
%TF.SameCoordinates,Original*%
%TF.FileFunction,Legend,Top*%
%TF.FilePolarity,Positive*%
%FSLAX46Y46*%
G04 Gerber Fmt 4.6, Leading zero omitted, Abs format (unit mm)*
G04 Created by KiCad (PCBNEW 9.0.7) date 2026-03-28 17:21:52*
%MOMM*%
%LPD*%
G01*
G04 APERTURE LIST*
%ADD10C,0.250000*%
%ADD11C,0.150000*%
%ADD12C,0.120000*%
G04 APERTURE END LIST*
D10*
X136398095Y-125932238D02*
X136302857Y-125884619D01*
X136302857Y-125884619D02*
X136160000Y-125884619D01*
X136160000Y-125884619D02*
X136017143Y-125932238D01*
X136017143Y-125932238D02*
X135921905Y-126027476D01*
X135921905Y-126027476D02*
X135874286Y-126122714D01*
X135874286Y-126122714D02*
X135826667Y-126313190D01*
X135826667Y-126313190D02*
X135826667Y-126456047D01*
X135826667Y-126456047D02*
X135874286Y-126646523D01*
X135874286Y-126646523D02*
X135921905Y-126741761D01*
X135921905Y-126741761D02*
X136017143Y-126837000D01*
X136017143Y-126837000D02*
X136160000Y-126884619D01*
X136160000Y-126884619D02*
X136255238Y-126884619D01*
X136255238Y-126884619D02*
X136398095Y-126837000D01*
X136398095Y-126837000D02*
X136445714Y-126789380D01*
X136445714Y-126789380D02*
X136445714Y-126456047D01*
X136445714Y-126456047D02*
X136255238Y-126456047D01*
X136874286Y-126884619D02*
X136874286Y-125884619D01*
X136874286Y-125884619D02*
X137445714Y-126884619D01*
X137445714Y-126884619D02*
X137445714Y-125884619D01*
X137921905Y-126884619D02*
X137921905Y-125884619D01*
X137921905Y-125884619D02*
X138160000Y-125884619D01*
X138160000Y-125884619D02*
X138302857Y-125932238D01*
X138302857Y-125932238D02*
X138398095Y-126027476D01*
X138398095Y-126027476D02*
X138445714Y-126122714D01*
X138445714Y-126122714D02*
X138493333Y-126313190D01*
X138493333Y-126313190D02*
X138493333Y-126456047D01*
X138493333Y-126456047D02*
X138445714Y-126646523D01*
X138445714Y-126646523D02*
X138398095Y-126741761D01*
X138398095Y-126741761D02*
X138302857Y-126837000D01*
X138302857Y-126837000D02*
X138160000Y-126884619D01*
X138160000Y-126884619D02*
X137921905Y-126884619D01*
X114682568Y-141419619D02*
X114682568Y-140419619D01*
X115158758Y-141419619D02*
X115158758Y-140419619D01*
X115158758Y-140419619D02*
X115730186Y-141419619D01*
X115730186Y-141419619D02*
X115730186Y-140419619D01*
X116730186Y-141419619D02*
X116158758Y-141419619D01*
X116444472Y-141419619D02*
X116444472Y-140419619D01*
X116444472Y-140419619D02*
X116349234Y-140562476D01*
X116349234Y-140562476D02*
X116253996Y-140657714D01*
X116253996Y-140657714D02*
X116158758Y-140705333D01*
X116776667Y-155094619D02*
X117110000Y-156094619D01*
X117110000Y-156094619D02*
X117443333Y-155094619D01*
X117776667Y-156094619D02*
X117776667Y-155094619D01*
X117776667Y-155094619D02*
X118014762Y-155094619D01*
X118014762Y-155094619D02*
X118157619Y-155142238D01*
X118157619Y-155142238D02*
X118252857Y-155237476D01*
X118252857Y-155237476D02*
X118300476Y-155332714D01*
X118300476Y-155332714D02*
X118348095Y-155523190D01*
X118348095Y-155523190D02*
X118348095Y-155666047D01*
X118348095Y-155666047D02*
X118300476Y-155856523D01*
X118300476Y-155856523D02*
X118252857Y-155951761D01*
X118252857Y-155951761D02*
X118157619Y-156047000D01*
X118157619Y-156047000D02*
X118014762Y-156094619D01*
X118014762Y-156094619D02*
X117776667Y-156094619D01*
X119348095Y-155999380D02*
X119300476Y-156047000D01*
X119300476Y-156047000D02*
X119157619Y-156094619D01*
X119157619Y-156094619D02*
X119062381Y-156094619D01*
X119062381Y-156094619D02*
X118919524Y-156047000D01*
X118919524Y-156047000D02*
X118824286Y-155951761D01*
X118824286Y-155951761D02*
X118776667Y-155856523D01*
X118776667Y-155856523D02*
X118729048Y-155666047D01*
X118729048Y-155666047D02*
X118729048Y-155523190D01*
X118729048Y-155523190D02*
X118776667Y-155332714D01*
X118776667Y-155332714D02*
X118824286Y-155237476D01*
X118824286Y-155237476D02*
X118919524Y-155142238D01*
X118919524Y-155142238D02*
X119062381Y-155094619D01*
X119062381Y-155094619D02*
X119157619Y-155094619D01*
X119157619Y-155094619D02*
X119300476Y-155142238D01*
X119300476Y-155142238D02*
X119348095Y-155189857D01*
X114808095Y-150062238D02*
X114712857Y-150014619D01*
X114712857Y-150014619D02*
X114570000Y-150014619D01*
X114570000Y-150014619D02*
X114427143Y-150062238D01*
X114427143Y-150062238D02*
X114331905Y-150157476D01*
X114331905Y-150157476D02*
X114284286Y-150252714D01*
X114284286Y-150252714D02*
X114236667Y-150443190D01*
X114236667Y-150443190D02*
X114236667Y-150586047D01*
X114236667Y-150586047D02*
X114284286Y-150776523D01*
X114284286Y-150776523D02*
X114331905Y-150871761D01*
X114331905Y-150871761D02*
X114427143Y-150967000D01*
X114427143Y-150967000D02*
X114570000Y-151014619D01*
X114570000Y-151014619D02*
X114665238Y-151014619D01*
X114665238Y-151014619D02*
X114808095Y-150967000D01*
X114808095Y-150967000D02*
X114855714Y-150919380D01*
X114855714Y-150919380D02*
X114855714Y-150586047D01*
X114855714Y-150586047D02*
X114665238Y-150586047D01*
X115284286Y-151014619D02*
X115284286Y-150014619D01*
X115284286Y-150014619D02*
X115855714Y-151014619D01*
X115855714Y-151014619D02*
X115855714Y-150014619D01*
X116331905Y-151014619D02*
X116331905Y-150014619D01*
X116331905Y-150014619D02*
X116570000Y-150014619D01*
X116570000Y-150014619D02*
X116712857Y-150062238D01*
X116712857Y-150062238D02*
X116808095Y-150157476D01*
X116808095Y-150157476D02*
X116855714Y-150252714D01*
X116855714Y-150252714D02*
X116903333Y-150443190D01*
X116903333Y-150443190D02*
X116903333Y-150586047D01*
X116903333Y-150586047D02*
X116855714Y-150776523D01*
X116855714Y-150776523D02*
X116808095Y-150871761D01*
X116808095Y-150871761D02*
X116712857Y-150967000D01*
X116712857Y-150967000D02*
X116570000Y-151014619D01*
X116570000Y-151014619D02*
X116331905Y-151014619D01*
X108066758Y-127719619D02*
X107590568Y-127719619D01*
X107590568Y-127719619D02*
X107542949Y-128195809D01*
X107542949Y-128195809D02*
X107590568Y-128148190D01*
X107590568Y-128148190D02*
X107685806Y-128100571D01*
X107685806Y-128100571D02*
X107923901Y-128100571D01*
X107923901Y-128100571D02*
X108019139Y-128148190D01*
X108019139Y-128148190D02*
X108066758Y-128195809D01*
X108066758Y-128195809D02*
X108114377Y-128291047D01*
X108114377Y-128291047D02*
X108114377Y-128529142D01*
X108114377Y-128529142D02*
X108066758Y-128624380D01*
X108066758Y-128624380D02*
X108019139Y-128672000D01*
X108019139Y-128672000D02*
X107923901Y-128719619D01*
X107923901Y-128719619D02*
X107685806Y-128719619D01*
X107685806Y-128719619D02*
X107590568Y-128672000D01*
X107590568Y-128672000D02*
X107542949Y-128624380D01*
X108400092Y-127719619D02*
X108733425Y-128719619D01*
X108733425Y-128719619D02*
X109066758Y-127719619D01*
X110045714Y-153824619D02*
X110379047Y-154824619D01*
X110379047Y-154824619D02*
X110712380Y-153824619D01*
X111617142Y-154824619D02*
X111283809Y-154348428D01*
X111045714Y-154824619D02*
X111045714Y-153824619D01*
X111045714Y-153824619D02*
X111426666Y-153824619D01*
X111426666Y-153824619D02*
X111521904Y-153872238D01*
X111521904Y-153872238D02*
X111569523Y-153919857D01*
X111569523Y-153919857D02*
X111617142Y-154015095D01*
X111617142Y-154015095D02*
X111617142Y-154157952D01*
X111617142Y-154157952D02*
X111569523Y-154253190D01*
X111569523Y-154253190D02*
X111521904Y-154300809D01*
X111521904Y-154300809D02*
X111426666Y-154348428D01*
X111426666Y-154348428D02*
X111045714Y-154348428D01*
X112045714Y-154300809D02*
X112379047Y-154300809D01*
X112521904Y-154824619D02*
X112045714Y-154824619D01*
X112045714Y-154824619D02*
X112045714Y-153824619D01*
X112045714Y-153824619D02*
X112521904Y-153824619D01*
X113283809Y-154300809D02*
X112950476Y-154300809D01*
X112950476Y-154824619D02*
X112950476Y-153824619D01*
X112950476Y-153824619D02*
X113426666Y-153824619D01*
X108066758Y-137879619D02*
X107590568Y-137879619D01*
X107590568Y-137879619D02*
X107542949Y-138355809D01*
X107542949Y-138355809D02*
X107590568Y-138308190D01*
X107590568Y-138308190D02*
X107685806Y-138260571D01*
X107685806Y-138260571D02*
X107923901Y-138260571D01*
X107923901Y-138260571D02*
X108019139Y-138308190D01*
X108019139Y-138308190D02*
X108066758Y-138355809D01*
X108066758Y-138355809D02*
X108114377Y-138451047D01*
X108114377Y-138451047D02*
X108114377Y-138689142D01*
X108114377Y-138689142D02*
X108066758Y-138784380D01*
X108066758Y-138784380D02*
X108019139Y-138832000D01*
X108019139Y-138832000D02*
X107923901Y-138879619D01*
X107923901Y-138879619D02*
X107685806Y-138879619D01*
X107685806Y-138879619D02*
X107590568Y-138832000D01*
X107590568Y-138832000D02*
X107542949Y-138784380D01*
X108400092Y-137879619D02*
X108733425Y-138879619D01*
X108733425Y-138879619D02*
X109066758Y-137879619D01*
X109130377Y-132847238D02*
X109035139Y-132799619D01*
X109035139Y-132799619D02*
X108892282Y-132799619D01*
X108892282Y-132799619D02*
X108749425Y-132847238D01*
X108749425Y-132847238D02*
X108654187Y-132942476D01*
X108654187Y-132942476D02*
X108606568Y-133037714D01*
X108606568Y-133037714D02*
X108558949Y-133228190D01*
X108558949Y-133228190D02*
X108558949Y-133371047D01*
X108558949Y-133371047D02*
X108606568Y-133561523D01*
X108606568Y-133561523D02*
X108654187Y-133656761D01*
X108654187Y-133656761D02*
X108749425Y-133752000D01*
X108749425Y-133752000D02*
X108892282Y-133799619D01*
X108892282Y-133799619D02*
X108987520Y-133799619D01*
X108987520Y-133799619D02*
X109130377Y-133752000D01*
X109130377Y-133752000D02*
X109177996Y-133704380D01*
X109177996Y-133704380D02*
X109177996Y-133371047D01*
X109177996Y-133371047D02*
X108987520Y-133371047D01*
X109606568Y-133799619D02*
X109606568Y-132799619D01*
X109606568Y-132799619D02*
X110177996Y-133799619D01*
X110177996Y-133799619D02*
X110177996Y-132799619D01*
X110654187Y-133799619D02*
X110654187Y-132799619D01*
X110654187Y-132799619D02*
X110892282Y-132799619D01*
X110892282Y-132799619D02*
X111035139Y-132847238D01*
X111035139Y-132847238D02*
X111130377Y-132942476D01*
X111130377Y-132942476D02*
X111177996Y-133037714D01*
X111177996Y-133037714D02*
X111225615Y-133228190D01*
X111225615Y-133228190D02*
X111225615Y-133371047D01*
X111225615Y-133371047D02*
X111177996Y-133561523D01*
X111177996Y-133561523D02*
X111130377Y-133656761D01*
X111130377Y-133656761D02*
X111035139Y-133752000D01*
X111035139Y-133752000D02*
X110892282Y-133799619D01*
X110892282Y-133799619D02*
X110654187Y-133799619D01*
X114682568Y-131259619D02*
X114682568Y-130259619D01*
X115158758Y-131259619D02*
X115158758Y-130259619D01*
X115158758Y-130259619D02*
X115730186Y-131259619D01*
X115730186Y-131259619D02*
X115730186Y-130259619D01*
X116158758Y-130354857D02*
X116206377Y-130307238D01*
X116206377Y-130307238D02*
X116301615Y-130259619D01*
X116301615Y-130259619D02*
X116539710Y-130259619D01*
X116539710Y-130259619D02*
X116634948Y-130307238D01*
X116634948Y-130307238D02*
X116682567Y-130354857D01*
X116682567Y-130354857D02*
X116730186Y-130450095D01*
X116730186Y-130450095D02*
X116730186Y-130545333D01*
X116730186Y-130545333D02*
X116682567Y-130688190D01*
X116682567Y-130688190D02*
X116111139Y-131259619D01*
X116111139Y-131259619D02*
X116730186Y-131259619D01*
X115206377Y-134117238D02*
X115111139Y-134069619D01*
X115111139Y-134069619D02*
X114968282Y-134069619D01*
X114968282Y-134069619D02*
X114825425Y-134117238D01*
X114825425Y-134117238D02*
X114730187Y-134212476D01*
X114730187Y-134212476D02*
X114682568Y-134307714D01*
X114682568Y-134307714D02*
X114634949Y-134498190D01*
X114634949Y-134498190D02*
X114634949Y-134641047D01*
X114634949Y-134641047D02*
X114682568Y-134831523D01*
X114682568Y-134831523D02*
X114730187Y-134926761D01*
X114730187Y-134926761D02*
X114825425Y-135022000D01*
X114825425Y-135022000D02*
X114968282Y-135069619D01*
X114968282Y-135069619D02*
X115063520Y-135069619D01*
X115063520Y-135069619D02*
X115206377Y-135022000D01*
X115206377Y-135022000D02*
X115253996Y-134974380D01*
X115253996Y-134974380D02*
X115253996Y-134641047D01*
X115253996Y-134641047D02*
X115063520Y-134641047D01*
X115682568Y-135069619D02*
X115682568Y-134069619D01*
X115682568Y-134069619D02*
X116253996Y-135069619D01*
X116253996Y-135069619D02*
X116253996Y-134069619D01*
X116730187Y-135069619D02*
X116730187Y-134069619D01*
X116730187Y-134069619D02*
X116968282Y-134069619D01*
X116968282Y-134069619D02*
X117111139Y-134117238D01*
X117111139Y-134117238D02*
X117206377Y-134212476D01*
X117206377Y-134212476D02*
X117253996Y-134307714D01*
X117253996Y-134307714D02*
X117301615Y-134498190D01*
X117301615Y-134498190D02*
X117301615Y-134641047D01*
X117301615Y-134641047D02*
X117253996Y-134831523D01*
X117253996Y-134831523D02*
X117206377Y-134926761D01*
X117206377Y-134926761D02*
X117111139Y-135022000D01*
X117111139Y-135022000D02*
X116968282Y-135069619D01*
X116968282Y-135069619D02*
X116730187Y-135069619D01*
X131873809Y-130964619D02*
X132064285Y-130964619D01*
X132064285Y-130964619D02*
X132159523Y-131012238D01*
X132159523Y-131012238D02*
X132254761Y-131107476D01*
X132254761Y-131107476D02*
X132302380Y-131297952D01*
X132302380Y-131297952D02*
X132302380Y-131631285D01*
X132302380Y-131631285D02*
X132254761Y-131821761D01*
X132254761Y-131821761D02*
X132159523Y-131917000D01*
X132159523Y-131917000D02*
X132064285Y-131964619D01*
X132064285Y-131964619D02*
X131873809Y-131964619D01*
X131873809Y-131964619D02*
X131778571Y-131917000D01*
X131778571Y-131917000D02*
X131683333Y-131821761D01*
X131683333Y-131821761D02*
X131635714Y-131631285D01*
X131635714Y-131631285D02*
X131635714Y-131297952D01*
X131635714Y-131297952D02*
X131683333Y-131107476D01*
X131683333Y-131107476D02*
X131778571Y-131012238D01*
X131778571Y-131012238D02*
X131873809Y-130964619D01*
X132730952Y-130964619D02*
X132730952Y-131774142D01*
X132730952Y-131774142D02*
X132778571Y-131869380D01*
X132778571Y-131869380D02*
X132826190Y-131917000D01*
X132826190Y-131917000D02*
X132921428Y-131964619D01*
X132921428Y-131964619D02*
X133111904Y-131964619D01*
X133111904Y-131964619D02*
X133207142Y-131917000D01*
X133207142Y-131917000D02*
X133254761Y-131869380D01*
X133254761Y-131869380D02*
X133302380Y-131774142D01*
X133302380Y-131774142D02*
X133302380Y-130964619D01*
X133635714Y-130964619D02*
X134207142Y-130964619D01*
X133921428Y-131964619D02*
X133921428Y-130964619D01*
X134492857Y-131059857D02*
X134540476Y-131012238D01*
X134540476Y-131012238D02*
X134635714Y-130964619D01*
X134635714Y-130964619D02*
X134873809Y-130964619D01*
X134873809Y-130964619D02*
X134969047Y-131012238D01*
X134969047Y-131012238D02*
X135016666Y-131059857D01*
X135016666Y-131059857D02*
X135064285Y-131155095D01*
X135064285Y-131155095D02*
X135064285Y-131250333D01*
X135064285Y-131250333D02*
X135016666Y-131393190D01*
X135016666Y-131393190D02*
X134445238Y-131964619D01*
X134445238Y-131964619D02*
X135064285Y-131964619D01*
X107582568Y-141419619D02*
X107582568Y-140419619D01*
X108058758Y-141419619D02*
X108058758Y-140419619D01*
X108058758Y-140419619D02*
X108630186Y-141419619D01*
X108630186Y-141419619D02*
X108630186Y-140419619D01*
X109630186Y-141419619D02*
X109058758Y-141419619D01*
X109344472Y-141419619D02*
X109344472Y-140419619D01*
X109344472Y-140419619D02*
X109249234Y-140562476D01*
X109249234Y-140562476D02*
X109153996Y-140657714D01*
X109153996Y-140657714D02*
X109058758Y-140705333D01*
X136398095Y-142442238D02*
X136302857Y-142394619D01*
X136302857Y-142394619D02*
X136160000Y-142394619D01*
X136160000Y-142394619D02*
X136017143Y-142442238D01*
X136017143Y-142442238D02*
X135921905Y-142537476D01*
X135921905Y-142537476D02*
X135874286Y-142632714D01*
X135874286Y-142632714D02*
X135826667Y-142823190D01*
X135826667Y-142823190D02*
X135826667Y-142966047D01*
X135826667Y-142966047D02*
X135874286Y-143156523D01*
X135874286Y-143156523D02*
X135921905Y-143251761D01*
X135921905Y-143251761D02*
X136017143Y-143347000D01*
X136017143Y-143347000D02*
X136160000Y-143394619D01*
X136160000Y-143394619D02*
X136255238Y-143394619D01*
X136255238Y-143394619D02*
X136398095Y-143347000D01*
X136398095Y-143347000D02*
X136445714Y-143299380D01*
X136445714Y-143299380D02*
X136445714Y-142966047D01*
X136445714Y-142966047D02*
X136255238Y-142966047D01*
X136874286Y-143394619D02*
X136874286Y-142394619D01*
X136874286Y-142394619D02*
X137445714Y-143394619D01*
X137445714Y-143394619D02*
X137445714Y-142394619D01*
X137921905Y-143394619D02*
X137921905Y-142394619D01*
X137921905Y-142394619D02*
X138160000Y-142394619D01*
X138160000Y-142394619D02*
X138302857Y-142442238D01*
X138302857Y-142442238D02*
X138398095Y-142537476D01*
X138398095Y-142537476D02*
X138445714Y-142632714D01*
X138445714Y-142632714D02*
X138493333Y-142823190D01*
X138493333Y-142823190D02*
X138493333Y-142966047D01*
X138493333Y-142966047D02*
X138445714Y-143156523D01*
X138445714Y-143156523D02*
X138398095Y-143251761D01*
X138398095Y-143251761D02*
X138302857Y-143347000D01*
X138302857Y-143347000D02*
X138160000Y-143394619D01*
X138160000Y-143394619D02*
X137921905Y-143394619D01*
X115206377Y-144277238D02*
X115111139Y-144229619D01*
X115111139Y-144229619D02*
X114968282Y-144229619D01*
X114968282Y-144229619D02*
X114825425Y-144277238D01*
X114825425Y-144277238D02*
X114730187Y-144372476D01*
X114730187Y-144372476D02*
X114682568Y-144467714D01*
X114682568Y-144467714D02*
X114634949Y-144658190D01*
X114634949Y-144658190D02*
X114634949Y-144801047D01*
X114634949Y-144801047D02*
X114682568Y-144991523D01*
X114682568Y-144991523D02*
X114730187Y-145086761D01*
X114730187Y-145086761D02*
X114825425Y-145182000D01*
X114825425Y-145182000D02*
X114968282Y-145229619D01*
X114968282Y-145229619D02*
X115063520Y-145229619D01*
X115063520Y-145229619D02*
X115206377Y-145182000D01*
X115206377Y-145182000D02*
X115253996Y-145134380D01*
X115253996Y-145134380D02*
X115253996Y-144801047D01*
X115253996Y-144801047D02*
X115063520Y-144801047D01*
X115682568Y-145229619D02*
X115682568Y-144229619D01*
X115682568Y-144229619D02*
X116253996Y-145229619D01*
X116253996Y-145229619D02*
X116253996Y-144229619D01*
X116730187Y-145229619D02*
X116730187Y-144229619D01*
X116730187Y-144229619D02*
X116968282Y-144229619D01*
X116968282Y-144229619D02*
X117111139Y-144277238D01*
X117111139Y-144277238D02*
X117206377Y-144372476D01*
X117206377Y-144372476D02*
X117253996Y-144467714D01*
X117253996Y-144467714D02*
X117301615Y-144658190D01*
X117301615Y-144658190D02*
X117301615Y-144801047D01*
X117301615Y-144801047D02*
X117253996Y-144991523D01*
X117253996Y-144991523D02*
X117206377Y-145086761D01*
X117206377Y-145086761D02*
X117111139Y-145182000D01*
X117111139Y-145182000D02*
X116968282Y-145229619D01*
X116968282Y-145229619D02*
X116730187Y-145229619D01*
X107582568Y-131259619D02*
X107582568Y-130259619D01*
X108058758Y-131259619D02*
X108058758Y-130259619D01*
X108058758Y-130259619D02*
X108630186Y-131259619D01*
X108630186Y-131259619D02*
X108630186Y-130259619D01*
X109058758Y-130354857D02*
X109106377Y-130307238D01*
X109106377Y-130307238D02*
X109201615Y-130259619D01*
X109201615Y-130259619D02*
X109439710Y-130259619D01*
X109439710Y-130259619D02*
X109534948Y-130307238D01*
X109534948Y-130307238D02*
X109582567Y-130354857D01*
X109582567Y-130354857D02*
X109630186Y-130450095D01*
X109630186Y-130450095D02*
X109630186Y-130545333D01*
X109630186Y-130545333D02*
X109582567Y-130688190D01*
X109582567Y-130688190D02*
X109011139Y-131259619D01*
X109011139Y-131259619D02*
X109630186Y-131259619D01*
X132588095Y-155142238D02*
X132492857Y-155094619D01*
X132492857Y-155094619D02*
X132350000Y-155094619D01*
X132350000Y-155094619D02*
X132207143Y-155142238D01*
X132207143Y-155142238D02*
X132111905Y-155237476D01*
X132111905Y-155237476D02*
X132064286Y-155332714D01*
X132064286Y-155332714D02*
X132016667Y-155523190D01*
X132016667Y-155523190D02*
X132016667Y-155666047D01*
X132016667Y-155666047D02*
X132064286Y-155856523D01*
X132064286Y-155856523D02*
X132111905Y-155951761D01*
X132111905Y-155951761D02*
X132207143Y-156047000D01*
X132207143Y-156047000D02*
X132350000Y-156094619D01*
X132350000Y-156094619D02*
X132445238Y-156094619D01*
X132445238Y-156094619D02*
X132588095Y-156047000D01*
X132588095Y-156047000D02*
X132635714Y-155999380D01*
X132635714Y-155999380D02*
X132635714Y-155666047D01*
X132635714Y-155666047D02*
X132445238Y-155666047D01*
X133064286Y-156094619D02*
X133064286Y-155094619D01*
X133064286Y-155094619D02*
X133635714Y-156094619D01*
X133635714Y-156094619D02*
X133635714Y-155094619D01*
X134111905Y-156094619D02*
X134111905Y-155094619D01*
X134111905Y-155094619D02*
X134350000Y-155094619D01*
X134350000Y-155094619D02*
X134492857Y-155142238D01*
X134492857Y-155142238D02*
X134588095Y-155237476D01*
X134588095Y-155237476D02*
X134635714Y-155332714D01*
X134635714Y-155332714D02*
X134683333Y-155523190D01*
X134683333Y-155523190D02*
X134683333Y-155666047D01*
X134683333Y-155666047D02*
X134635714Y-155856523D01*
X134635714Y-155856523D02*
X134588095Y-155951761D01*
X134588095Y-155951761D02*
X134492857Y-156047000D01*
X134492857Y-156047000D02*
X134350000Y-156094619D01*
X134350000Y-156094619D02*
X134111905Y-156094619D01*
X109130377Y-143007238D02*
X109035139Y-142959619D01*
X109035139Y-142959619D02*
X108892282Y-142959619D01*
X108892282Y-142959619D02*
X108749425Y-143007238D01*
X108749425Y-143007238D02*
X108654187Y-143102476D01*
X108654187Y-143102476D02*
X108606568Y-143197714D01*
X108606568Y-143197714D02*
X108558949Y-143388190D01*
X108558949Y-143388190D02*
X108558949Y-143531047D01*
X108558949Y-143531047D02*
X108606568Y-143721523D01*
X108606568Y-143721523D02*
X108654187Y-143816761D01*
X108654187Y-143816761D02*
X108749425Y-143912000D01*
X108749425Y-143912000D02*
X108892282Y-143959619D01*
X108892282Y-143959619D02*
X108987520Y-143959619D01*
X108987520Y-143959619D02*
X109130377Y-143912000D01*
X109130377Y-143912000D02*
X109177996Y-143864380D01*
X109177996Y-143864380D02*
X109177996Y-143531047D01*
X109177996Y-143531047D02*
X108987520Y-143531047D01*
X109606568Y-143959619D02*
X109606568Y-142959619D01*
X109606568Y-142959619D02*
X110177996Y-143959619D01*
X110177996Y-143959619D02*
X110177996Y-142959619D01*
X110654187Y-143959619D02*
X110654187Y-142959619D01*
X110654187Y-142959619D02*
X110892282Y-142959619D01*
X110892282Y-142959619D02*
X111035139Y-143007238D01*
X111035139Y-143007238D02*
X111130377Y-143102476D01*
X111130377Y-143102476D02*
X111177996Y-143197714D01*
X111177996Y-143197714D02*
X111225615Y-143388190D01*
X111225615Y-143388190D02*
X111225615Y-143531047D01*
X111225615Y-143531047D02*
X111177996Y-143721523D01*
X111177996Y-143721523D02*
X111130377Y-143816761D01*
X111130377Y-143816761D02*
X111035139Y-143912000D01*
X111035139Y-143912000D02*
X110892282Y-143959619D01*
X110892282Y-143959619D02*
X110654187Y-143959619D01*
X131873809Y-136044619D02*
X132064285Y-136044619D01*
X132064285Y-136044619D02*
X132159523Y-136092238D01*
X132159523Y-136092238D02*
X132254761Y-136187476D01*
X132254761Y-136187476D02*
X132302380Y-136377952D01*
X132302380Y-136377952D02*
X132302380Y-136711285D01*
X132302380Y-136711285D02*
X132254761Y-136901761D01*
X132254761Y-136901761D02*
X132159523Y-136997000D01*
X132159523Y-136997000D02*
X132064285Y-137044619D01*
X132064285Y-137044619D02*
X131873809Y-137044619D01*
X131873809Y-137044619D02*
X131778571Y-136997000D01*
X131778571Y-136997000D02*
X131683333Y-136901761D01*
X131683333Y-136901761D02*
X131635714Y-136711285D01*
X131635714Y-136711285D02*
X131635714Y-136377952D01*
X131635714Y-136377952D02*
X131683333Y-136187476D01*
X131683333Y-136187476D02*
X131778571Y-136092238D01*
X131778571Y-136092238D02*
X131873809Y-136044619D01*
X132730952Y-136044619D02*
X132730952Y-136854142D01*
X132730952Y-136854142D02*
X132778571Y-136949380D01*
X132778571Y-136949380D02*
X132826190Y-136997000D01*
X132826190Y-136997000D02*
X132921428Y-137044619D01*
X132921428Y-137044619D02*
X133111904Y-137044619D01*
X133111904Y-137044619D02*
X133207142Y-136997000D01*
X133207142Y-136997000D02*
X133254761Y-136949380D01*
X133254761Y-136949380D02*
X133302380Y-136854142D01*
X133302380Y-136854142D02*
X133302380Y-136044619D01*
X133635714Y-136044619D02*
X134207142Y-136044619D01*
X133921428Y-137044619D02*
X133921428Y-136044619D01*
X135064285Y-137044619D02*
X134492857Y-137044619D01*
X134778571Y-137044619D02*
X134778571Y-136044619D01*
X134778571Y-136044619D02*
X134683333Y-136187476D01*
X134683333Y-136187476D02*
X134588095Y-136282714D01*
X134588095Y-136282714D02*
X134492857Y-136330333D01*
D11*
X123023333Y-144429580D02*
X122975714Y-144477200D01*
X122975714Y-144477200D02*
X122832857Y-144524819D01*
X122832857Y-144524819D02*
X122737619Y-144524819D01*
X122737619Y-144524819D02*
X122594762Y-144477200D01*
X122594762Y-144477200D02*
X122499524Y-144381961D01*
X122499524Y-144381961D02*
X122451905Y-144286723D01*
X122451905Y-144286723D02*
X122404286Y-144096247D01*
X122404286Y-144096247D02*
X122404286Y-143953390D01*
X122404286Y-143953390D02*
X122451905Y-143762914D01*
X122451905Y-143762914D02*
X122499524Y-143667676D01*
X122499524Y-143667676D02*
X122594762Y-143572438D01*
X122594762Y-143572438D02*
X122737619Y-143524819D01*
X122737619Y-143524819D02*
X122832857Y-143524819D01*
X122832857Y-143524819D02*
X122975714Y-143572438D01*
X122975714Y-143572438D02*
X123023333Y-143620057D01*
X123880476Y-143858152D02*
X123880476Y-144524819D01*
X123642381Y-143477200D02*
X123404286Y-144191485D01*
X123404286Y-144191485D02*
X124023333Y-144191485D01*
X124996666Y-153097319D02*
X124996666Y-153811604D01*
X124996666Y-153811604D02*
X124949047Y-153954461D01*
X124949047Y-153954461D02*
X124853809Y-154049700D01*
X124853809Y-154049700D02*
X124710952Y-154097319D01*
X124710952Y-154097319D02*
X124615714Y-154097319D01*
X125996666Y-154097319D02*
X125425238Y-154097319D01*
X125710952Y-154097319D02*
X125710952Y-153097319D01*
X125710952Y-153097319D02*
X125615714Y-153240176D01*
X125615714Y-153240176D02*
X125520476Y-153335414D01*
X125520476Y-153335414D02*
X125425238Y-153383033D01*
X127910819Y-133832166D02*
X127434628Y-134165499D01*
X127910819Y-134403594D02*
X126910819Y-134403594D01*
X126910819Y-134403594D02*
X126910819Y-134022642D01*
X126910819Y-134022642D02*
X126958438Y-133927404D01*
X126958438Y-133927404D02*
X127006057Y-133879785D01*
X127006057Y-133879785D02*
X127101295Y-133832166D01*
X127101295Y-133832166D02*
X127244152Y-133832166D01*
X127244152Y-133832166D02*
X127339390Y-133879785D01*
X127339390Y-133879785D02*
X127387009Y-133927404D01*
X127387009Y-133927404D02*
X127434628Y-134022642D01*
X127434628Y-134022642D02*
X127434628Y-134403594D01*
X127006057Y-133451213D02*
X126958438Y-133403594D01*
X126958438Y-133403594D02*
X126910819Y-133308356D01*
X126910819Y-133308356D02*
X126910819Y-133070261D01*
X126910819Y-133070261D02*
X126958438Y-132975023D01*
X126958438Y-132975023D02*
X127006057Y-132927404D01*
X127006057Y-132927404D02*
X127101295Y-132879785D01*
X127101295Y-132879785D02*
X127196533Y-132879785D01*
X127196533Y-132879785D02*
X127339390Y-132927404D01*
X127339390Y-132927404D02*
X127910819Y-133498832D01*
X127910819Y-133498832D02*
X127910819Y-132879785D01*
X108244819Y-157646666D02*
X107768628Y-157979999D01*
X108244819Y-158218094D02*
X107244819Y-158218094D01*
X107244819Y-158218094D02*
X107244819Y-157837142D01*
X107244819Y-157837142D02*
X107292438Y-157741904D01*
X107292438Y-157741904D02*
X107340057Y-157694285D01*
X107340057Y-157694285D02*
X107435295Y-157646666D01*
X107435295Y-157646666D02*
X107578152Y-157646666D01*
X107578152Y-157646666D02*
X107673390Y-157694285D01*
X107673390Y-157694285D02*
X107721009Y-157741904D01*
X107721009Y-157741904D02*
X107768628Y-157837142D01*
X107768628Y-157837142D02*
X107768628Y-158218094D01*
X108244819Y-156694285D02*
X108244819Y-157265713D01*
X108244819Y-156979999D02*
X107244819Y-156979999D01*
X107244819Y-156979999D02*
X107387676Y-157075237D01*
X107387676Y-157075237D02*
X107482914Y-157170475D01*
X107482914Y-157170475D02*
X107530533Y-157265713D01*
X111164761Y-159349819D02*
X110831428Y-158873628D01*
X110593333Y-159349819D02*
X110593333Y-158349819D01*
X110593333Y-158349819D02*
X110974285Y-158349819D01*
X110974285Y-158349819D02*
X111069523Y-158397438D01*
X111069523Y-158397438D02*
X111117142Y-158445057D01*
X111117142Y-158445057D02*
X111164761Y-158540295D01*
X111164761Y-158540295D02*
X111164761Y-158683152D01*
X111164761Y-158683152D02*
X111117142Y-158778390D01*
X111117142Y-158778390D02*
X111069523Y-158826009D01*
X111069523Y-158826009D02*
X110974285Y-158873628D01*
X110974285Y-158873628D02*
X110593333Y-158873628D01*
X111450476Y-158349819D02*
X111783809Y-159349819D01*
X111783809Y-159349819D02*
X112117142Y-158349819D01*
X112974285Y-159349819D02*
X112402857Y-159349819D01*
X112688571Y-159349819D02*
X112688571Y-158349819D01*
X112688571Y-158349819D02*
X112593333Y-158492676D01*
X112593333Y-158492676D02*
X112498095Y-158587914D01*
X112498095Y-158587914D02*
X112402857Y-158635533D01*
X130048095Y-144374819D02*
X130048095Y-145184342D01*
X130048095Y-145184342D02*
X130095714Y-145279580D01*
X130095714Y-145279580D02*
X130143333Y-145327200D01*
X130143333Y-145327200D02*
X130238571Y-145374819D01*
X130238571Y-145374819D02*
X130429047Y-145374819D01*
X130429047Y-145374819D02*
X130524285Y-145327200D01*
X130524285Y-145327200D02*
X130571904Y-145279580D01*
X130571904Y-145279580D02*
X130619523Y-145184342D01*
X130619523Y-145184342D02*
X130619523Y-144374819D01*
X131048095Y-144470057D02*
X131095714Y-144422438D01*
X131095714Y-144422438D02*
X131190952Y-144374819D01*
X131190952Y-144374819D02*
X131429047Y-144374819D01*
X131429047Y-144374819D02*
X131524285Y-144422438D01*
X131524285Y-144422438D02*
X131571904Y-144470057D01*
X131571904Y-144470057D02*
X131619523Y-144565295D01*
X131619523Y-144565295D02*
X131619523Y-144660533D01*
X131619523Y-144660533D02*
X131571904Y-144803390D01*
X131571904Y-144803390D02*
X131000476Y-145374819D01*
X131000476Y-145374819D02*
X131619523Y-145374819D01*
X135317319Y-136223333D02*
X136031604Y-136223333D01*
X136031604Y-136223333D02*
X136174461Y-136270952D01*
X136174461Y-136270952D02*
X136269700Y-136366190D01*
X136269700Y-136366190D02*
X136317319Y-136509047D01*
X136317319Y-136509047D02*
X136317319Y-136604285D01*
X135317319Y-135842380D02*
X135317319Y-135223333D01*
X135317319Y-135223333D02*
X135698271Y-135556666D01*
X135698271Y-135556666D02*
X135698271Y-135413809D01*
X135698271Y-135413809D02*
X135745890Y-135318571D01*
X135745890Y-135318571D02*
X135793509Y-135270952D01*
X135793509Y-135270952D02*
X135888747Y-135223333D01*
X135888747Y-135223333D02*
X136126842Y-135223333D01*
X136126842Y-135223333D02*
X136222080Y-135270952D01*
X136222080Y-135270952D02*
X136269700Y-135318571D01*
X136269700Y-135318571D02*
X136317319Y-135413809D01*
X136317319Y-135413809D02*
X136317319Y-135699523D01*
X136317319Y-135699523D02*
X136269700Y-135794761D01*
X136269700Y-135794761D02*
X136222080Y-135842380D01*
X130643333Y-142439580D02*
X130595714Y-142487200D01*
X130595714Y-142487200D02*
X130452857Y-142534819D01*
X130452857Y-142534819D02*
X130357619Y-142534819D01*
X130357619Y-142534819D02*
X130214762Y-142487200D01*
X130214762Y-142487200D02*
X130119524Y-142391961D01*
X130119524Y-142391961D02*
X130071905Y-142296723D01*
X130071905Y-142296723D02*
X130024286Y-142106247D01*
X130024286Y-142106247D02*
X130024286Y-141963390D01*
X130024286Y-141963390D02*
X130071905Y-141772914D01*
X130071905Y-141772914D02*
X130119524Y-141677676D01*
X130119524Y-141677676D02*
X130214762Y-141582438D01*
X130214762Y-141582438D02*
X130357619Y-141534819D01*
X130357619Y-141534819D02*
X130452857Y-141534819D01*
X130452857Y-141534819D02*
X130595714Y-141582438D01*
X130595714Y-141582438D02*
X130643333Y-141630057D01*
X130976667Y-141534819D02*
X131595714Y-141534819D01*
X131595714Y-141534819D02*
X131262381Y-141915771D01*
X131262381Y-141915771D02*
X131405238Y-141915771D01*
X131405238Y-141915771D02*
X131500476Y-141963390D01*
X131500476Y-141963390D02*
X131548095Y-142011009D01*
X131548095Y-142011009D02*
X131595714Y-142106247D01*
X131595714Y-142106247D02*
X131595714Y-142344342D01*
X131595714Y-142344342D02*
X131548095Y-142439580D01*
X131548095Y-142439580D02*
X131500476Y-142487200D01*
X131500476Y-142487200D02*
X131405238Y-142534819D01*
X131405238Y-142534819D02*
X131119524Y-142534819D01*
X131119524Y-142534819D02*
X131024286Y-142487200D01*
X131024286Y-142487200D02*
X130976667Y-142439580D01*
X130643333Y-150059580D02*
X130595714Y-150107200D01*
X130595714Y-150107200D02*
X130452857Y-150154819D01*
X130452857Y-150154819D02*
X130357619Y-150154819D01*
X130357619Y-150154819D02*
X130214762Y-150107200D01*
X130214762Y-150107200D02*
X130119524Y-150011961D01*
X130119524Y-150011961D02*
X130071905Y-149916723D01*
X130071905Y-149916723D02*
X130024286Y-149726247D01*
X130024286Y-149726247D02*
X130024286Y-149583390D01*
X130024286Y-149583390D02*
X130071905Y-149392914D01*
X130071905Y-149392914D02*
X130119524Y-149297676D01*
X130119524Y-149297676D02*
X130214762Y-149202438D01*
X130214762Y-149202438D02*
X130357619Y-149154819D01*
X130357619Y-149154819D02*
X130452857Y-149154819D01*
X130452857Y-149154819D02*
X130595714Y-149202438D01*
X130595714Y-149202438D02*
X130643333Y-149250057D01*
X131024286Y-149250057D02*
X131071905Y-149202438D01*
X131071905Y-149202438D02*
X131167143Y-149154819D01*
X131167143Y-149154819D02*
X131405238Y-149154819D01*
X131405238Y-149154819D02*
X131500476Y-149202438D01*
X131500476Y-149202438D02*
X131548095Y-149250057D01*
X131548095Y-149250057D02*
X131595714Y-149345295D01*
X131595714Y-149345295D02*
X131595714Y-149440533D01*
X131595714Y-149440533D02*
X131548095Y-149583390D01*
X131548095Y-149583390D02*
X130976667Y-150154819D01*
X130976667Y-150154819D02*
X131595714Y-150154819D01*
X121158095Y-131026819D02*
X121158095Y-131836342D01*
X121158095Y-131836342D02*
X121205714Y-131931580D01*
X121205714Y-131931580D02*
X121253333Y-131979200D01*
X121253333Y-131979200D02*
X121348571Y-132026819D01*
X121348571Y-132026819D02*
X121539047Y-132026819D01*
X121539047Y-132026819D02*
X121634285Y-131979200D01*
X121634285Y-131979200D02*
X121681904Y-131931580D01*
X121681904Y-131931580D02*
X121729523Y-131836342D01*
X121729523Y-131836342D02*
X121729523Y-131026819D01*
X122729523Y-132026819D02*
X122158095Y-132026819D01*
X122443809Y-132026819D02*
X122443809Y-131026819D01*
X122443809Y-131026819D02*
X122348571Y-131169676D01*
X122348571Y-131169676D02*
X122253333Y-131264914D01*
X122253333Y-131264914D02*
X122158095Y-131312533D01*
X123023333Y-141489580D02*
X122975714Y-141537200D01*
X122975714Y-141537200D02*
X122832857Y-141584819D01*
X122832857Y-141584819D02*
X122737619Y-141584819D01*
X122737619Y-141584819D02*
X122594762Y-141537200D01*
X122594762Y-141537200D02*
X122499524Y-141441961D01*
X122499524Y-141441961D02*
X122451905Y-141346723D01*
X122451905Y-141346723D02*
X122404286Y-141156247D01*
X122404286Y-141156247D02*
X122404286Y-141013390D01*
X122404286Y-141013390D02*
X122451905Y-140822914D01*
X122451905Y-140822914D02*
X122499524Y-140727676D01*
X122499524Y-140727676D02*
X122594762Y-140632438D01*
X122594762Y-140632438D02*
X122737619Y-140584819D01*
X122737619Y-140584819D02*
X122832857Y-140584819D01*
X122832857Y-140584819D02*
X122975714Y-140632438D01*
X122975714Y-140632438D02*
X123023333Y-140680057D01*
X123975714Y-141584819D02*
X123404286Y-141584819D01*
X123690000Y-141584819D02*
X123690000Y-140584819D01*
X123690000Y-140584819D02*
X123594762Y-140727676D01*
X123594762Y-140727676D02*
X123499524Y-140822914D01*
X123499524Y-140822914D02*
X123404286Y-140870533D01*
X121753333Y-153299580D02*
X121705714Y-153347200D01*
X121705714Y-153347200D02*
X121562857Y-153394819D01*
X121562857Y-153394819D02*
X121467619Y-153394819D01*
X121467619Y-153394819D02*
X121324762Y-153347200D01*
X121324762Y-153347200D02*
X121229524Y-153251961D01*
X121229524Y-153251961D02*
X121181905Y-153156723D01*
X121181905Y-153156723D02*
X121134286Y-152966247D01*
X121134286Y-152966247D02*
X121134286Y-152823390D01*
X121134286Y-152823390D02*
X121181905Y-152632914D01*
X121181905Y-152632914D02*
X121229524Y-152537676D01*
X121229524Y-152537676D02*
X121324762Y-152442438D01*
X121324762Y-152442438D02*
X121467619Y-152394819D01*
X121467619Y-152394819D02*
X121562857Y-152394819D01*
X121562857Y-152394819D02*
X121705714Y-152442438D01*
X121705714Y-152442438D02*
X121753333Y-152490057D01*
X122658095Y-152394819D02*
X122181905Y-152394819D01*
X122181905Y-152394819D02*
X122134286Y-152871009D01*
X122134286Y-152871009D02*
X122181905Y-152823390D01*
X122181905Y-152823390D02*
X122277143Y-152775771D01*
X122277143Y-152775771D02*
X122515238Y-152775771D01*
X122515238Y-152775771D02*
X122610476Y-152823390D01*
X122610476Y-152823390D02*
X122658095Y-152871009D01*
X122658095Y-152871009D02*
X122705714Y-152966247D01*
X122705714Y-152966247D02*
X122705714Y-153204342D01*
X122705714Y-153204342D02*
X122658095Y-153299580D01*
X122658095Y-153299580D02*
X122610476Y-153347200D01*
X122610476Y-153347200D02*
X122515238Y-153394819D01*
X122515238Y-153394819D02*
X122277143Y-153394819D01*
X122277143Y-153394819D02*
X122181905Y-153347200D01*
X122181905Y-153347200D02*
X122134286Y-153299580D01*
D12*
%TO.C,TP3*%
X113980000Y-140970000D02*
G75*
G02*
X112080000Y-140970000I-950000J0D01*
G01*
X112080000Y-140970000D02*
G75*
G02*
X113980000Y-140970000I950000J0D01*
G01*
%TO.C,TP4*%
X113980000Y-130810000D02*
G75*
G02*
X112080000Y-130810000I-950000J0D01*
G01*
X112080000Y-130810000D02*
G75*
G02*
X113980000Y-130810000I950000J0D01*
G01*
%TO.C,TP10*%
X138110000Y-144780000D02*
G75*
G02*
X136210000Y-144780000I-950000J0D01*
G01*
X136210000Y-144780000D02*
G75*
G02*
X138110000Y-144780000I950000J0D01*
G01*
%TO.C,TP6*%
X134300000Y-157480000D02*
G75*
G02*
X132400000Y-157480000I-950000J0D01*
G01*
X132400000Y-157480000D02*
G75*
G02*
X134300000Y-157480000I950000J0D01*
G01*
%TO.C,TP11*%
X112710000Y-156210000D02*
G75*
G02*
X110810000Y-156210000I-950000J0D01*
G01*
X110810000Y-156210000D02*
G75*
G02*
X112710000Y-156210000I950000J0D01*
G01*
%TO.C,C4*%
X123330580Y-142130000D02*
X123049420Y-142130000D01*
X123330580Y-143150000D02*
X123049420Y-143150000D01*
%TO.C,TP1*%
X119060000Y-157480000D02*
G75*
G02*
X117160000Y-157480000I-950000J0D01*
G01*
X117160000Y-157480000D02*
G75*
G02*
X119060000Y-157480000I950000J0D01*
G01*
%TO.C,TP2*%
X113980000Y-144780000D02*
G75*
G02*
X112080000Y-144780000I-950000J0D01*
G01*
X112080000Y-144780000D02*
G75*
G02*
X113980000Y-144780000I950000J0D01*
G01*
%TO.C,J1*%
X119830000Y-154642500D02*
X130830000Y-154642500D01*
X119830000Y-156262500D02*
X130830000Y-156262500D01*
X119830000Y-164012500D02*
X130830000Y-164012500D01*
X119830000Y-165132500D02*
X119830000Y-154642500D01*
X122190000Y-165132500D02*
X119830000Y-165132500D01*
X130830000Y-154642500D02*
X130830000Y-165132500D01*
X130830000Y-165132500D02*
X122790000Y-165132500D01*
X122930000Y-165742500D02*
X122050000Y-165742500D01*
X122490000Y-165132500D01*
X122930000Y-165742500D01*
G36*
X122930000Y-165742500D02*
G01*
X122050000Y-165742500D01*
X122490000Y-165132500D01*
X122930000Y-165742500D01*
G37*
%TO.C,R2*%
X128376000Y-134392564D02*
X128376000Y-132938436D01*
X130196000Y-134392564D02*
X130196000Y-132938436D01*
%TO.C,R1*%
X108697500Y-157717258D02*
X108697500Y-157242742D01*
X109742500Y-157717258D02*
X109742500Y-157242742D01*
%TO.C,TP5*%
X113980000Y-134620000D02*
G75*
G02*
X112080000Y-134620000I-950000J0D01*
G01*
X112080000Y-134620000D02*
G75*
G02*
X113980000Y-134620000I950000J0D01*
G01*
%TO.C,RV1*%
X106885000Y-160035000D02*
X116635000Y-160035000D01*
X106885000Y-165085000D02*
X106885000Y-160035000D01*
X116635000Y-160035000D02*
X116635000Y-165085000D01*
X116635000Y-165085000D02*
X106885000Y-165085000D01*
%TO.C,TP12*%
X116520000Y-152400000D02*
G75*
G02*
X114620000Y-152400000I-950000J0D01*
G01*
X114620000Y-152400000D02*
G75*
G02*
X116520000Y-152400000I950000J0D01*
G01*
%TO.C,J2*%
X104030000Y-137050000D02*
X105410000Y-137050000D01*
X104030000Y-138430000D02*
X104030000Y-137050000D01*
X104030000Y-139700000D02*
X104030000Y-144890000D01*
X104030000Y-139700000D02*
X106790000Y-139700000D01*
X104030000Y-144890000D02*
X106790000Y-144890000D01*
X106790000Y-139700000D02*
X106790000Y-144890000D01*
%TO.C,U2*%
X129900000Y-145760000D02*
X131720000Y-145760000D01*
X129900000Y-145810000D02*
X129900000Y-145760000D01*
X129900000Y-147710000D02*
X129900000Y-146930000D01*
X129900000Y-148880000D02*
X129900000Y-148830000D01*
X131720000Y-145760000D02*
X131720000Y-146760000D01*
X131720000Y-147880000D02*
X131720000Y-148880000D01*
X131720000Y-148880000D02*
X129900000Y-148880000D01*
X129600000Y-147270000D02*
X129120000Y-147270000D01*
X129360000Y-146940000D01*
X129600000Y-147270000D01*
G36*
X129600000Y-147270000D02*
G01*
X129120000Y-147270000D01*
X129360000Y-146940000D01*
X129600000Y-147270000D01*
G37*
%TO.C,J3*%
X136862500Y-130390000D02*
X147352500Y-130390000D01*
X136862500Y-141390000D02*
X136862500Y-130390000D01*
X138482500Y-141390000D02*
X138482500Y-130390000D01*
X146232500Y-141390000D02*
X146232500Y-130390000D01*
X147352500Y-130390000D02*
X147352500Y-138430000D01*
X147352500Y-139030000D02*
X147352500Y-141390000D01*
X147352500Y-141390000D02*
X136862500Y-141390000D01*
X147962500Y-139170000D02*
X147352500Y-138730000D01*
X147962500Y-138290000D01*
X147962500Y-139170000D01*
G36*
X147962500Y-139170000D02*
G01*
X147352500Y-138730000D01*
X147962500Y-138290000D01*
X147962500Y-139170000D01*
G37*
%TO.C,TP9*%
X134300000Y-138430000D02*
G75*
G02*
X132400000Y-138430000I-950000J0D01*
G01*
X132400000Y-138430000D02*
G75*
G02*
X134300000Y-138430000I950000J0D01*
G01*
%TO.C,J4*%
X104030000Y-126890000D02*
X105410000Y-126890000D01*
X104030000Y-128270000D02*
X104030000Y-126890000D01*
X104030000Y-129540000D02*
X104030000Y-134730000D01*
X104030000Y-129540000D02*
X106790000Y-129540000D01*
X104030000Y-134730000D02*
X106790000Y-134730000D01*
X106790000Y-129540000D02*
X106790000Y-134730000D01*
%TO.C,TP7*%
X138110000Y-128270000D02*
G75*
G02*
X136210000Y-128270000I-950000J0D01*
G01*
X136210000Y-128270000D02*
G75*
G02*
X138110000Y-128270000I950000J0D01*
G01*
%TO.C,C3*%
X130669420Y-143000000D02*
X130950580Y-143000000D01*
X130669420Y-144020000D02*
X130950580Y-144020000D01*
%TO.C,C2*%
X130669420Y-150620000D02*
X130950580Y-150620000D01*
X130669420Y-151640000D02*
X130950580Y-151640000D01*
D11*
%TO.C,U1*%
X119845000Y-133315000D02*
X123995000Y-133315000D01*
X119845000Y-138465000D02*
X123995000Y-138465000D01*
D12*
X119245000Y-133415000D02*
X119005000Y-133085000D01*
X119485000Y-133085000D01*
X119245000Y-133415000D01*
G36*
X119245000Y-133415000D02*
G01*
X119005000Y-133085000D01*
X119485000Y-133085000D01*
X119245000Y-133415000D01*
G37*
%TO.C,C1*%
X123330580Y-139190000D02*
X123049420Y-139190000D01*
X123330580Y-140210000D02*
X123049420Y-140210000D01*
%TO.C,C5*%
X118510000Y-145180000D02*
X118510000Y-147530000D01*
X118510000Y-152000000D02*
X118510000Y-149650000D01*
X124265563Y-145180000D02*
X118510000Y-145180000D01*
X124265563Y-152000000D02*
X118510000Y-152000000D01*
X125330000Y-146244437D02*
X124265563Y-145180000D01*
X125330000Y-146244437D02*
X125330000Y-147530000D01*
X125330000Y-150935563D02*
X124265563Y-152000000D01*
X125330000Y-150935563D02*
X125330000Y-149650000D01*
X125963750Y-150831250D02*
X125963750Y-150043750D01*
X126357500Y-150437500D02*
X125570000Y-150437500D01*
%TO.C,TP8*%
X134300000Y-133350000D02*
G75*
G02*
X132400000Y-133350000I-950000J0D01*
G01*
X132400000Y-133350000D02*
G75*
G02*
X134300000Y-133350000I950000J0D01*
G01*
%TD*%
M02*
