M48
; DRILL file {KiCad 9.0.7} date 2026-03-28T17:21:46+0000
; FORMAT={-:-/ absolute / inch / decimal}
; #@! TF.CreationDate,2026-03-28T17:21:46+00:00
; #@! TF.GenerationSoftware,Kicad,Pcbnew,9.0.7
; #@! TF.FileFunction,Plated,1,2,PTH
FMAT,2
INCH
; #@! TA.AperFunction,Plated,PTH,ViaDrill
T1C0.0118
; #@! TA.AperFunction,Plated,PTH,ComponentDrill
T2C0.0130
; #@! TA.AperFunction,Plated,PTH,ComponentDrill
T3C0.0315
; #@! TA.AperFunction,Plated,PTH,ComponentDrill
T4C0.0394
; #@! TA.AperFunction,Plated,PTH,ComponentDrill
T5C0.0630
%
G90
G05
T1
X4.16Y-5.34
X4.16Y-5.74
X4.2Y-5.34
X4.2Y-5.74
X4.24Y-5.22
X4.24Y-5.26
X4.24Y-5.3
X4.24Y-5.62
X4.24Y-5.66
X4.24Y-5.7
X4.28Y-6.11
X4.32Y-6.11
X4.49Y-5.4
X4.5Y-5.44
X4.52Y-5.37
X4.53Y-5.41
X4.55Y-5.34
X4.56Y-5.38
X4.59Y-5.35
X4.59Y-5.8
X4.59Y-5.84
X4.59Y-5.88
X4.63Y-5.93
X4.63Y-5.97
X4.64Y-5.14
X4.64Y-5.18
X4.64Y-5.22
X4.64Y-5.78
X4.65Y-6.01
X4.68Y-5.14
X4.68Y-5.18
X4.68Y-5.22
X4.69Y-6.01
X4.72Y-5.14
X4.72Y-5.18
X4.72Y-5.22
X4.72Y-5.48
X4.72Y-5.52
X4.72Y-5.59
X4.72Y-5.63
X4.73Y-5.69
X4.73Y-6.01
X4.76Y-5.14
X4.76Y-5.22
X4.76Y-5.48
X4.76Y-5.52
X4.76Y-5.59
X4.76Y-5.63
X4.77Y-5.69
X4.8Y-5.14
X4.8Y-5.22
X4.84Y-5.14
X4.84Y-5.18
X4.84Y-5.22
X4.88Y-5.14
X4.88Y-5.18
X4.88Y-5.22
X4.92Y-5.14
X4.92Y-5.18
X4.92Y-5.22
X4.96Y-5.14
X4.96Y-5.18
X4.99Y-6.05
X5.01Y-5.16
X5.01Y-5.2
X5.01Y-6.02
X5.03Y-6.05
X5.04Y-5.14
X5.05Y-6.02
X5.07Y-6.05
X5.08Y-5.14
X5.12Y-5.14
X5.24Y-5.63
X5.24Y-5.67
X5.24Y-5.93
X5.24Y-5.97
X5.26Y-5.78
X5.26Y-5.82
T2
X4.7744Y-5.2988
X4.7744Y-5.35
X4.7744Y-5.4012
X4.8256Y-5.2988
X4.8256Y-5.35
X4.8256Y-5.4012
T3
X4.3Y-6.3998
X4.4Y-6.3998
X4.5Y-6.3998
T4
X4.15Y-5.05
X4.15Y-5.15
X4.15Y-5.25
X4.15Y-5.45
X4.15Y-5.55
X4.15Y-5.65
T5
X4.8224Y-6.2859
X5.0224Y-6.2859
X5.5859Y-5.2618
X5.5859Y-5.4618
M30
